<?xml version="1.0" encoding="utf-8"?><!DOCTYPE svg PUBLIC "-//W3C//DTD SVG 1.1//EN" "http://www.w3.org/Graphics/SVG/1.1/DTD/svg11.dtd"><svg version="1.1" id="Contours" xmlns="http://www.w3.org/2000/svg" xmlns:xlink="http://www.w3.org/1999/xlink" x="0px" y="0px" width="1176.404663px" height="1176.404663px" viewBox="-0.000000 -0.000002 1176.404663 239.410736" enable-background="new 0 0 1176.404663 1176.404663" xml:space="preserve" stroke="black" fill="none" stroke-linecap='round' stroke-linejoin='round'><path class="R-stroke"  fill="#000000" opacity="1.000000" stroke="none" 
 	d="
M735.591885 179.090849 C727.078579 176.083433 724.222134 171.395948 726.695217 162.903379 C731.128262 147.680113 738.900967 134.386473 752.215908 125.167021 C755.279812 123.045546 759.290005 121.675093 763.010769 121.256025 C769.235439 120.554945 770.211392 121.776014 771.623745 128.031477 C771.855740 129.059050 772.254971 130.312254 773.011868 130.913359 C776.730862 133.866880 775.902248 137.181089 774.367153 140.871611 C771.647488 147.409986 769.119778 154.030378 766.645229 160.666227 C766.263332 161.690245 766.403530 163.020445 766.647244 164.133528 C766.871182 165.156385 767.560207 166.077406 768.044338 167.043303 C768.848965 166.603743 769.791348 166.310682 770.437649 165.702803 C781.466030 155.329664 789.320583 142.889265 794.644802 128.750380 C795.780300 125.735060 797.305569 122.775908 799.144253 120.134031 C803.605862 113.723326 810.480618 116.397413 816.429226 116.198683 C821.772976 116.020185 827.191311 116.461149 832.484951 117.246946 C834.412930 117.533125 836.666897 119.266996 837.642361 120.982725 C838.244595 122.041868 837.209438 124.859755 836.035305 125.921293 C833.880398 127.869627 830.675015 128.690824 828.618496 130.707045 C820.168606 138.991606 812.527493 147.904844 810.672085 160.202085 C810.457668 161.623228 811.345242 163.210600 811.721951 164.720915 C812.880032 164.142805 814.256130 163.797544 815.161709 162.949720 C822.390774 156.181715 829.646389 149.434660 836.661831 142.448210 C842.377773 136.755903 847.495815 130.441832 853.406582 124.973722 C857.547146 121.143202 862.426968 118.032881 867.247952 115.037504 C872.751186 111.618208 878.144619 111.799604 882.907192 116.819914 C883.583828 117.533232 884.828884 117.937986 885.857754 118.048384 C891.696377 118.674726 893.912624 122.189985 890.606045 127.378462 C885.142910 135.950987 881.619412 145.120008 880.241726 155.073896 C879.835476 158.009001 879.987820 161.609480 881.370388 164.069944 C883.587551 168.015532 887.196377 166.259230 889.333340 163.690809 C894.003872 158.077223 898.816677 152.427458 902.464321 146.149244 C910.156948 132.908888 917.148708 119.260847 924.393643 105.761579 C925.039517 104.558104 925.433560 103.219404 925.944546 101.943510 C924.355557 101.964079 922.728848 101.770231 921.183926 102.041746 C913.901882 103.321608 906.649746 104.771605 899.370571 106.068525 C896.699001 106.544523 894.358914 105.823042 893.635708 102.899687 C892.828335 99.635893 894.580288 97.544355 897.557156 96.672026 C904.256435 94.708982 910.993679 92.866240 917.755642 91.131407 C920.051540 90.542372 922.556545 90.712904 924.808743 90.022932 C928.160183 88.996168 930.609341 87.290853 932.039639 83.396109 C934.632534 76.335737 938.199856 69.611654 941.655117 62.898901 C943.320950 59.662603 949.061367 57.582373 951.216152 59.366148 C953.911343 61.597227 954.259182 64.768965 953.087917 68.116056 C951.202480 73.504278 949.511074 78.961897 947.550259 84.321623 C946.655727 86.766905 947.166164 87.034109 949.602749 86.647932 C957.927090 85.328588 966.257412 83.823233 974.646084 83.181852 C991.705166 81.877554 1008.795376 80.900167 1025.888638 80.149984 C1040.068325 79.527662 1054.273159 79.106108 1068.462612 79.204397 C1077.688686 79.268309 1086.936977 80.150930 1096.123013 81.148458 C1114.530972 83.147436 1132.968350 85.362806 1149.709805 94.134565 C1162.301235 100.731871 1171.798306 110.632246 1175.237393 124.513258 C1178.490322 137.643049 1174.864956 149.804213 1165.349819 159.821287 C1157.819424 167.748960 1149.106045 174.093565 1138.643154 177.373045 C1132.697109 179.236799 1124.461514 180.045973 1120.396206 174.268553 C1119.017422 172.309217 1118.458340 169.758467 1117.608730 167.447035 C1117.128994 166.141691 1116.820278 164.773436 1116.434536 163.433531 C1115.491909 164.147718 1114.467007 164.776564 1113.622036 165.591993 C1111.104580 168.021772 1108.537685 170.417372 1106.209194 173.022078 C1101.704556 178.060957 1091.079678 179.159239 1087.017544 173.079023 C1084.170864 168.818174 1081.323208 169.439833 1077.952358 173.048841 C1075.027187 176.180510 1071.146694 178.396315 1067.956509 181.310286 C1064.585903 184.388990 1061.131558 185.124540 1056.993130 183.111250 C1052.555264 180.952330 1052.532192 176.439161 1052.813320 172.972136 C1053.435146 165.301695 1055.193447 157.716246 1056.643887 150.125853 C1056.954434 148.500975 1058.084438 147.047468 1058.543301 145.431654 C1058.936611 144.046629 1058.909756 142.542372 1059.068813 141.090834 C1057.579678 141.920973 1055.586025 142.393599 1054.696621 143.648725 C1052.092495 147.323729 1050.185391 151.497343 1047.538662 155.136259 C1041.919888 162.861448 1036.063809 170.417295 1030.184414 177.948286 C1027.762905 181.050108 1024.038662 182.538664 1020.796719 180.490461 C1017.623745 178.485868 1017.072842 174.868574 1018.283169 170.757780 C1021.674893 159.238585 1026.227017 148.318281 1032.777310 138.231047 C1032.899380 138.042982 1031.504360 136.273161 1030.706265 136.178724 C1024.484097 135.442488 1017.731411 140.272947 1015.554043 146.341749 C1011.415615 157.876554 1004.734707 167.480055 993.289456 172.802565 C986.712246 175.861280 981.162502 176.658796 974.931484 169.863661 C973.224453 168.002150 972.349880 168.050230 970.271999 169.707991 C965.776638 173.294401 961.380093 176.918638 954.884487 177.241758 C943.739040 177.796156 938.423611 170.290022 942.137173 159.204710 C943.787319 154.278624 946.785977 149.812132 949.042324 145.074995 C949.524990 144.061674 949.444180 142.779951 949.622891 141.621855 C948.367153 141.856886 946.838711 141.728743 945.923000 142.416471 C944.707668 143.329237 944.091641 144.993528 943.008511 146.136198 C935.622707 153.927961 928.200832 161.685881 920.749416 169.415007 C917.762844 172.512922 914.946926 175.890486 911.503506 178.380384 C909.970059 179.489195 906.703396 179.496061 904.887112 178.622740 C901.987087 177.228300 901.225002 174.373411 902.520596 171.018660 C903.461086 168.583464 903.743313 165.894041 904.318997 163.317961 C902.571865 165.247007 900.780056 167.137770 899.086880 169.113066 C895.582363 173.201719 891.505459 176.611967 886.224514 177.871992 C879.241116 179.538206 870.178555 171.952787 869.548184 164.245451 C869.411099 162.568480 868.720791 160.936750 868.285244 159.284193 C866.891506 160.215696 865.472256 161.111509 864.108608 162.085142 C859.346584 165.485304 854.857815 169.362837 849.791714 172.219389 C842.871365 176.121489 834.400112 175.328001 833.391140 165.471342 C833.374539 165.308989 829.926235 164.823530 828.803860 165.573317 C825.217434 167.969191 821.794399 170.686171 818.643154 173.636778 C815.028530 177.021162 810.400112 177.213102 806.907864 175.488478 C803.010525 173.563795 800.906948 169.349974 800.481289 164.339582 C799.268643 150.067579 805.456631 139.296782 815.483669 130.062513 C816.045986 129.544691 816.231167 128.617384 816.591885 127.880644 C815.924343 127.617384 815.274990 127.193586 814.586514 127.115889 C808.234951 126.399153 806.080532 127.880247 803.597927 134.728483 C798.262478 149.446287 790.242458 162.365141 778.409512 172.792250 C770.473599 179.785322 761.961514 178.177610 757.526211 168.999723 C755.898769 165.632124 753.458218 166.556761 751.323269 168.857786 C747.049770 173.463697 742.531887 177.708494 735.591885 179.090849 M929.091946 124.090864 C925.925259 132.612867 922.695095 141.112349 919.654324 149.679029 C919.148525 151.104094 919.467678 152.821943 919.405544 154.404478 C920.701626 153.565962 922.211697 152.934767 923.258267 151.854475 C929.085415 145.839537 934.569546 139.471235 940.651577 133.733259 C943.658718 130.896193 947.454006 128.364363 951.345974 127.163176 C954.455776 126.203444 959.043606 126.362120 961.477139 128.110151 C963.242947 129.378569 963.492886 134.295515 962.759731 137.161192 C961.515591 142.024565 958.819546 146.498228 957.002407 151.238676 C955.346768 155.558027 953.887478 159.969999 952.660732 164.428938 C952.061916 166.605375 953.043240 168.305296 955.494961 166.616972 C963.740994 160.938902 971.510342 154.912703 975.682278 145.188078 C979.772427 135.654417 984.374539 126.236586 992.255398 119.122587 C994.018154 117.531340 997.561428 115.856230 999.230740 116.596632 C1004.596890 118.976774 1009.633633 122.235640 1014.465908 125.627867 C1016.984219 127.395674 1018.934658 128.448637 1022.094082 127.182829 C1026.243008 125.520674 1030.582241 124.097059 1034.972378 123.331831 C1040.782314 122.319120 1045.664517 126.439939 1044.513638 132.514082 C1044.064053 134.886518 1042.546352 137.037931 1041.869717 139.391920 C1041.347378 141.209120 1041.378262 143.185331 1041.163052 145.090834 C1042.639370 143.717497 1044.119106 142.347883 1045.583584 140.962080 C1045.675869 140.874739 1045.611538 140.641310 1045.681973 140.508863 C1050.064907 132.274290 1055.948818 125.174818 1063.124966 119.343977 C1065.106289 117.733992 1068.915249 117.049009 1071.400845 117.724165 C1074.402920 118.539549 1075.126553 121.982985 1074.581631 125.172407 C1074.264858 127.027128 1073.940029 128.889311 1073.458218 130.705580 C1070.193447 143.012770 1066.837490 155.296278 1063.686367 167.632246 C1063.442959 168.584898 1064.542324 169.880506 1065.017666 171.016706 C1065.875698 170.450392 1066.874355 170.018339 1067.566616 169.293669 C1070.032070 166.712599 1072.409390 164.046553 1074.789150 161.384962 C1077.283535 158.595259 1080.666348 156.164091 1082.047573 152.894667 C1086.653530 141.992582 1095.545620 134.820707 1103.498989 126.831907 C1105.289761 125.033140 1107.938442 123.994413 1110.328457 122.905043 C1115.720913 120.447248 1119.097744 121.872190 1121.698574 126.981718 C1122.237637 128.040892 1124.102993 128.906538 1125.421108 129.005354 C1131.564663 129.465773 1134.249111 133.178801 1131.905361 139.178053 C1129.349209 145.721144 1126.857876 152.022017 1127.446743 159.396711 C1128.086392 167.407408 1131.012173 169.481062 1138.337734 165.859541 C1145.723110 162.208418 1152.067104 157.295622 1157.900845 151.433348 C1166.479336 142.812910 1167.347744 128.645185 1160.659268 118.620222 C1152.267178 106.041807 1139.570156 100.610594 1125.655361 97.091459 C1106.592861 92.270430 1087.035000 90.992231 1067.559780 90.313238 C1048.070644 89.633749 1028.518520 90.757605 1008.993984 91.090132 C1008.660854 91.095808 1008.324917 91.063345 1007.994595 91.094816 C994.049404 92.423536 980.103603 93.745352 966.160488 95.096189 C959.601711 95.731642 953.021755 96.241240 946.507595 97.192976 C944.313931 97.513472 941.212978 98.465208 940.378628 100.083311 C936.431789 107.738050 933.126064 115.723341 929.091946 124.090864 M855.091824 141.090834 C852.044094 145.805235 848.872036 150.445860 846.009548 155.270155 C844.854885 157.216124 844.310330 159.545805 843.711697 161.761244 C843.660488 161.950712 845.755459 163.191374 846.082485 162.940092 C850.024502 159.912092 854.386135 157.171370 857.541287 153.430494 C864.707974 144.933256 871.284817 135.936689 878.019314 127.080687 C878.495754 126.454069 878.301113 125.317152 878.418545 124.417494 C877.186489 124.431791 875.663479 123.978010 874.768398 124.534422 C867.629421 128.972486 860.144741 133.050795 855.091824 141.090834 M743.591885 149.590849 C741.591396 153.924681 739.499539 158.219984 737.646206 162.615858 C737.090359 163.934278 737.199978 165.533247 737.004727 167.003691 C738.495327 166.237898 740.434048 165.838148 741.405727 164.648512 C749.302395 154.980589 757.040005 145.182203 764.756802 135.369032 C765.593777 134.304716 765.990810 132.894453 766.591885 131.644636 C765.036465 131.515440 763.466580 131.205580 761.931484 131.329054 C761.094814 131.396360 760.349880 132.269148 759.508022 132.658491 C752.150845 136.061277 748.252407 142.696836 743.591885 149.590849 M1003.091885 143.090849 C998.666226 143.374693 993.717495 141.612608 990.540371 146.598494 C988.928433 149.128202 986.654751 151.298048 985.386196 153.966246 C984.275478 156.302671 983.883633 159.098310 983.785854 161.713972 C983.762295 162.344755 986.976772 163.935987 987.315518 163.616285 C993.445889 157.830351 999.390102 151.844511 1005.240566 145.772764 C1005.502895 145.500517 1004.503506 144.012541 1003.091885 143.090849 M1116.091885 144.090849 C1116.591885 143.136824 1117.326504 142.233000 1117.543545 141.218397 C1118.014126 139.020018 1118.220059 136.764952 1118.534145 134.533094 C1116.886807 136.044111 1115.167812 137.484953 1113.604702 139.078688 C1107.968960 144.824522 1102.304775 150.546797 1096.837978 156.450819 C1095.408779 157.994139 1094.285000 160.065901 1093.753872 162.087553 C1093.501797 163.046309 1094.761074 164.701811 1095.750454 165.568006 C1096.293301 166.043257 1098.189907 165.944471 1098.640347 165.405684 C1104.379116 158.541212 1109.966152 151.549894 1116.091885 144.090849 z"/><path class="omario-stroke"  fill="#000000" opacity="1.000000" stroke="none" 
 	d="
M507.591885 75.090849 C496.944119 78.906744 488.486599 85.425070 480.163906 92.111242 C478.580441 93.383368 477.563473 95.347074 476.226620 96.942717 C473.854549 99.773985 470.991787 100.176588 468.080593 98.013273 C464.920437 95.664976 465.149319 92.337599 467.443417 89.874037 C479.189510 77.260237 492.415066 66.022428 509.849148 63.394079 C527.331753 60.758413 544.676479 72.262808 545.739102 93.042891 C546.408657 106.136991 542.273403 117.677305 532.903896 125.524534 C525.839687 131.440962 525.788174 139.515684 521.548916 145.991636 C518.004177 151.406660 514.357266 156.799162 510.269009 161.804197 C503.060452 170.629194 494.396450 177.786634 484.189816 183.027098 C477.288632 186.570417 470.162747 188.947752 462.288052 188.076612 C457.006771 187.492369 452.669674 183.141401 451.729214 176.373991 C451.145504 172.174162 449.212277 172.859312 447.005489 174.249723 C436.808224 180.674528 427.423275 179.283751 419.643856 170.683271 C417.123379 167.896788 414.644039 168.562819 412.104702 171.026777 C405.236019 177.691557 393.403561 181.119047 384.181332 175.310850 C377.880184 171.342344 375.307308 165.555174 378.661892 159.018171 C383.117214 150.336164 388.043240 141.894300 392.846401 133.394087 C393.399349 132.415525 394.419216 131.677626 395.294827 130.910612 C396.296017 130.033552 397.377987 129.248716 398.424862 128.423826 C396.775692 127.979506 395.145107 127.442228 393.473965 127.107588 C387.527279 125.916792 384.420467 128.876524 381.968289 134.076887 C375.638790 147.500013 367.047299 159.427137 355.836636 169.208555 C350.335384 174.008451 344.351528 178.159056 336.106747 175.173353 C330.489681 173.139250 327.917202 169.004957 326.651730 163.728804 C326.054562 161.238951 325.734554 160.628843 323.466793 162.606382 C318.387447 167.035688 313.229244 171.432859 307.700192 175.261122 C305.278042 176.938246 301.905941 177.785322 298.901821 177.968138 C292.490902 178.358274 289.386196 173.352110 291.880947 167.307158 C292.762020 165.172285 293.814510 163.096952 294.524990 160.908796 C294.784939 160.108198 294.280697 159.059523 294.125088 158.124037 C293.320400 158.573271 292.316921 158.847563 291.742886 159.499800 C287.676235 164.120375 283.756252 168.870832 279.653256 173.458036 C278.506710 174.739881 277.005489 176.305784 275.488003 176.529966 C272.281643 177.003675 267.624081 177.995054 266.007107 176.358305 C263.816128 174.140547 262.691219 169.441969 263.261440 166.184355 C265.182491 155.209639 269.832333 145.331724 277.829342 137.242048 C278.563015 136.499891 278.510922 134.980925 278.823727 133.822706 C277.567867 133.923994 275.817135 133.525679 275.132595 134.203749 C268.185970 141.084562 261.142544 147.901640 254.672299 155.219374 C248.856381 161.797102 243.922817 169.152967 238.143887 175.766996 C236.757931 177.353193 233.125927 178.477171 231.323422 177.773451 C229.552456 177.082029 227.922482 173.842680 227.804623 171.637327 C227.644299 168.637007 228.349606 165.215971 229.782894 162.570997 C235.403500 152.198561 241.459103 142.061934 247.341885 131.831251 C247.802822 131.029676 248.325802 130.216246 248.549465 129.339354 C248.765987 128.490248 248.633358 127.552092 248.654080 126.653044 C247.731533 126.867460 246.454647 126.768599 245.943539 127.346724 C242.417660 131.334990 238.998654 135.421629 235.646206 139.558454 C230.297985 146.158003 225.217800 152.984846 219.670010 159.409681 C214.508206 165.387495 209.003353 171.085142 203.422558 176.679716 C199.412243 180.699949 195.240490 181.323088 192.556881 178.471891 C189.159298 174.862150 190.756664 171.440397 193.215511 167.882170 C198.563458 160.143064 203.607876 152.194838 208.831966 144.369215 C211.716259 140.048597 214.744656 135.824202 217.630947 131.504911 C218.173199 130.693418 218.350659 129.638166 218.696453 128.695417 C217.584744 128.827223 216.324383 128.666990 215.388134 129.143522 C212.074246 130.830305 208.957958 132.917265 205.604900 134.512251 C201.019634 136.693388 195.929440 138.018827 191.744518 140.761961 C189.053341 142.525984 186.978832 145.921720 185.695171 149.027235 C178.665035 166.035185 166.578655 178.342375 149.002514 182.731581 C131.729214 187.045134 115.988583 172.829969 121.770901 152.737699 C124.937389 141.734938 130.199795 131.343855 138.883862 123.375761 C149.759564 113.396742 162.911862 111.893919 176.354336 115.787809 C180.689999 117.043730 184.569317 121.780439 187.370312 125.817778 C189.557064 128.969725 191.174725 129.611540 194.174526 127.995970 C205.077389 122.124128 215.953915 116.203382 226.858898 110.335524 C231.672054 107.745604 237.604611 109.152845 238.227383 113.481459 C238.546291 115.697889 236.478726 118.225157 235.628170 120.660307 C235.335751 121.497541 235.463741 122.481626 235.399654 123.398619 C236.224575 123.035200 237.182400 122.833006 237.851833 122.281019 C241.100277 119.602415 244.091274 116.573042 247.523892 114.168028 C250.544399 112.051756 253.897030 112.621748 256.824886 114.843931 C260.114834 117.340971 261.340023 120.742384 260.407467 124.708403 C259.883328 126.937300 258.622799 128.989103 258.053585 131.212721 C257.674954 132.691893 257.931423 134.333616 257.903622 135.902586 C259.133053 135.066038 260.700375 134.480635 261.538418 133.353178 C268.178097 124.420423 277.866970 120.389814 287.937374 117.319868 C289.866665 116.731733 293.492092 118.494368 294.880856 120.294386 C296.145016 121.932875 296.469204 125.711409 295.417080 127.483549 C290.143093 136.366819 284.170559 144.832136 278.702786 153.605925 C277.339657 155.793226 276.938046 158.579741 276.094509 161.090849 C277.939327 159.578520 280.175350 158.359922 281.566677 156.507032 C292.090145 142.492781 305.054318 131.006437 319.338131 121.147886 C325.196835 117.104277 332.366451 114.892652 339.094051 112.238798 C340.277401 111.772001 342.245541 113.192396 343.814175 113.832197 C345.524685 114.529905 347.125393 115.604216 348.891049 116.038542 C353.607906 117.198866 355.507137 119.677824 353.485806 123.962431 C350.122677 131.091261 345.849636 137.788328 342.423519 144.890913 C340.359615 149.169462 339.469479 154.006834 337.488949 158.335539 C336.138332 161.287626 337.423245 163.262342 339.416622 164.144346 C341.048397 164.866362 344.078457 164.691236 345.336880 163.593504 C350.201992 159.349577 355.251675 155.048964 359.025051 149.886793 C364.244259 142.746672 368.421536 134.838087 372.925747 127.188353 C373.768581 125.756956 373.986874 123.970442 374.604916 122.391447 C376.004147 118.816389 377.674374 115.978270 382.432003 115.990614 C390.959133 116.012754 399.495541 115.086241 408.011746 115.278669 C410.896053 115.343855 415.390652 115.536467 415.735745 119.940809 C415.891872 121.933287 414.485806 124.621580 412.930599 126.078489 C404.892544 133.608641 400.246761 143.405958 394.585323 152.531141 C393.346920 154.527266 391.721310 156.344496 390.828457 158.476316 C389.944210 160.587629 389.760433 162.992338 389.269405 165.268370 C392.427548 165.658537 396.291409 167.384016 398.598873 166.164534 C403.604458 163.519133 408.777248 160.108488 412.170132 155.694990 C422.562771 142.175947 432.049374 127.963743 442.146481 114.210615 C443.744778 112.033567 446.500607 110.374647 449.071102 109.384031 C450.341732 108.894331 453.304440 110.017485 453.914913 111.217817 C454.930904 113.215483 455.714077 116.453352 454.764004 118.133192 C450.839077 125.072798 446.131527 131.564054 441.892666 138.333464 C437.679470 145.061979 433.542233 151.848448 429.704678 158.793486 C428.886257 160.274611 428.749539 163.657484 429.606503 164.239866 C431.769375 165.709715 434.873470 167.094725 437.236294 166.636427 C440.098385 166.081312 443.279080 164.146955 445.107845 161.844954 C450.906490 154.545897 455.669918 146.394499 461.725521 139.338011 C467.650570 132.433622 474.283688 125.987211 481.373379 120.295652 C484.871426 117.487455 490.021969 115.889326 494.519924 120.310682 C495.257595 121.035810 497.440945 120.674055 498.816921 120.301069 C505.568935 118.470839 512.202236 116.048521 519.138577 119.953840 C520.234707 120.570982 522.696255 120.187269 523.703213 119.315474 C532.526211 111.676237 537.884609 97.651442 532.688747 85.172514 C529.380215 77.226416 516.399868 71.612379 507.591885 75.090849 M467.091885 177.090864 C468.209683 176.973051 469.364437 176.996504 470.439480 176.715254 C479.627133 174.311476 487.374966 169.137220 494.120571 162.829008 C500.536160 156.829435 506.069302 149.875929 511.844021 143.214888 C512.549465 142.401182 512.347744 140.801054 512.566433 139.565397 C511.603359 139.740553 510.613918 139.827269 509.681851 140.106108 C505.533413 141.347136 501.468594 142.986113 497.242825 143.814024 C493.668179 144.514372 489.514584 145.154829 486.912106 141.695082 C485.779018 140.188765 485.909603 137.682096 485.620785 135.608244 C485.432156 134.253767 485.521175 132.860609 485.485836 131.484800 C484.091885 132.282789 482.380123 132.797163 481.365658 133.933882 C478.707852 136.911970 476.406063 140.204100 473.869656 143.294966 C466.980007 151.690611 460.812893 160.412687 462.713955 172.106764 C463.006100 173.903685 464.925228 175.436094 467.091885 177.090864 M174.091885 145.090849 C163.385769 146.791822 152.946148 147.037123 143.053509 141.266935 C140.835873 139.973433 137.874371 141.003462 136.596386 143.982542 C134.960827 147.795118 133.048855 151.524244 131.807293 155.463102 C129.483334 162.835829 132.151318 168.967115 139.494259 171.182920 C142.891232 172.207991 147.239132 171.276030 150.845425 170.195295 C162.997021 166.553663 168.761669 155.664839 176.261685 146.798780 C176.379757 146.659193 175.503903 145.678831 174.091885 145.090849 M336.091885 132.090864 C336.798733 131.384031 337.717983 130.786818 338.154659 129.940580 C338.623257 129.032438 338.638210 127.890181 338.851132 126.850096 C337.761196 126.930342 336.541042 126.730970 335.614651 127.162397 C334.484371 127.688765 333.543301 128.685942 332.621670 129.583525 C330.115444 132.024366 327.898312 134.827665 325.144924 136.936857 C316.590725 143.489653 309.407925 151.154966 304.655483 160.895567 C304.168667 161.893339 304.565304 163.322172 304.551998 164.550978 C305.592007 163.870878 306.690518 163.263670 307.654995 162.489485 C308.559078 161.763807 309.348751 160.886885 310.141750 160.032835 C318.630520 150.890486 327.109921 141.739485 336.091885 132.090864 M158.591885 125.590849 C155.872707 126.643339 153.087658 127.559751 150.472027 128.826109 C149.618359 129.239424 149.206051 130.564405 148.591885 131.472425 C149.507717 132.011900 150.378460 132.655638 151.346523 133.074400 C159.262035 136.498442 167.420239 135.034178 175.486141 133.957746 C176.855251 133.775038 180.022488 132.518202 176.923382 129.932920 C175.350979 128.621214 173.878353 126.588240 172.098614 126.246733 C167.845715 125.430540 163.437435 125.424177 158.591885 125.590849 z"/><path class="B-stroke"  fill="#000000" opacity="1.000000" stroke="none" 
 	d="
M600.341885 58.840849 C606.230862 46.304365 611.799282 33.996656 621.771877 24.364775 C626.833279 19.476297 632.662075 17.123705 639.672817 18.133692 C641.011685 18.326574 642.749416 18.695917 643.486233 19.628950 C647.303494 24.462580 650.059231 22.637903 653.408108 18.900789 C659.641750 11.944494 666.685085 5.811502 675.411648 2.134375 C685.978054 -2.318045 695.395107 0.107256 699.071987 10.241480 C701.616848 17.255445 699.680447 24.421034 696.999844 31.123098 C690.200527 48.122557 679.875271 63.029760 668.721462 77.370558 C664.440212 82.875189 659.541287 87.896498 655.024990 93.223867 C654.121487 94.289625 653.677578 95.744978 653.021755 97.020720 C654.512905 96.909620 656.133694 97.142164 657.475918 96.636106 C678.940029 88.543562 704.181973 98.593260 708.392300 124.435362 C710.484341 137.275953 706.892544 149.770613 700.130337 160.860823 C695.448452 168.539244 690.164089 175.987425 684.246853 182.749113 C668.287808 200.985701 648.320278 213.981199 626.674099 224.409544 C612.788723 231.099028 598.371121 236.243681 582.877407 238.206205 C573.140713 239.439512 563.533779 240.029173 554.135891 237.028196 C541.065945 232.854582 534.895474 222.035566 539.170254 207.963957 C543.685146 193.102064 553.375759 182.199049 565.430569 173.153090 C570.418301 169.410322 575.989651 166.454206 581.153286 162.931684 C582.742092 161.847853 584.170132 160.702314 582.730068 157.830656 C579.161831 150.714827 583.834560 144.402678 586.179653 138.216703 C591.196072 124.984312 596.990749 112.042784 602.610317 99.044233 C611.074307 79.466276 621.418911 60.930723 633.521877 43.352446 C635.680935 40.216635 637.584133 36.598631 638.405422 32.934278 C639.216457 29.315763 636.629177 27.723478 633.473782 29.909971 C629.633755 32.570929 625.334622 35.499228 623.106167 39.385412 C615.810635 52.108076 609.302944 65.286390 602.627163 78.358358 C600.459133 82.603529 598.477078 86.976553 596.837734 91.447935 C595.616421 94.779234 592.816738 96.274900 590.552090 94.811476 C588.769497 93.659613 587.520901 89.799208 587.956753 87.507330 C588.746243 83.356222 590.880642 79.439123 592.613064 75.494383 C595.029202 69.992811 597.591885 64.555601 600.341885 58.840849 M693.091885 150.090849 C696.116543 143.546858 697.827969 136.735365 697.608303 129.460646 C697.192532 115.693281 686.923489 105.323347 673.484219 105.155165 C657.069058 104.949736 642.631802 111.122343 629.186977 120.008360 C626.925015 121.503416 625.048306 122.899351 621.841274 121.347502 C620.458035 120.678175 616.827114 122.202482 615.738796 123.779936 C609.526333 132.784971 603.744412 142.088758 597.911343 151.350981 C597.402432 152.158964 597.581692 153.400282 597.441372 154.440336 C598.546291 154.323835 599.792141 154.497831 600.732143 154.041609 C605.316128 151.817076 609.656826 149.010038 614.379360 147.167036 C629.693997 141.190428 645.386196 136.527510 662.082668 138.259687 C665.732449 138.638334 669.368740 140.827925 672.578518 142.865309 C673.719997 143.589827 674.526577 147.190306 673.817532 147.979979 C672.454556 149.498152 669.541897 151.136976 667.900478 150.641874 C658.908535 147.929655 649.748623 148.144361 641.068264 150.349409 C618.466885 156.090773 597.077480 164.999907 577.632412 178.108625 C566.618191 185.533781 557.002285 194.179930 551.351467 206.708418 C546.719570 216.977888 548.488125 225.594847 560.964748 226.961882 C567.605923 227.689543 574.412380 227.423094 581.109158 227.020781 C594.526516 226.214659 607.073391 221.602171 618.963039 215.931028 C642.465359 204.720869 664.337490 190.872251 680.807766 170.152235 C685.504910 164.243116 688.705227 157.144209 693.091885 150.090849 M665.591946 63.590872 C669.240261 57.942564 672.946865 52.330870 676.523464 46.637533 C682.143154 37.691923 687.205044 28.487299 689.248867 17.943556 C690.068142 13.716867 686.504177 10.595667 682.350247 11.808802 C669.576321 15.539408 662.277065 26.116949 653.696438 34.961119 C650.018887 38.751638 647.417568 43.568808 647.507107 49.358747 C647.531826 50.960882 646.519985 52.576971 645.994106 54.190016 C640.106533 72.248411 633.525356 90.007895 623.814724 106.451017 C623.232632 107.436674 623.404018 108.867292 623.224758 110.090849 C624.348904 109.589079 625.755398 109.361143 626.551052 108.540785 C631.469692 103.469648 636.243191 98.257963 641.082363 93.109327 C642.557217 91.540083 644.219814 90.129919 645.569424 88.463087 C652.119228 80.373281 658.591885 72.220999 665.591946 63.590872 M611.091885 111.090849 C615.258572 102.342649 619.464626 93.612730 623.541287 84.822760 C624.041958 83.743223 623.850430 82.342642 623.979702 81.090864 C622.850430 81.946051 621.202786 82.559774 620.674099 83.694746 C616.522183 92.607656 612.525478 101.594984 608.636990 110.626585 C607.968960 112.178267 608.042751 114.049330 607.773892 115.772902 C608.713223 114.378889 609.652554 112.984877 611.091885 111.090849 z"/><path class="arahona-stroke"  fill="#000000" opacity="1.000000" stroke="none" 
 	d="
M17.591889 90.090849 C15.258549 96.956495 13.075432 103.383741 10.505436 109.652357 C9.674446 111.679274 8.135756 114.214506 6.351870 114.808454 C4.829548 115.315306 2.346785 113.586744 0.591980 112.399168 C-0.034891 111.974943 -0.121172 110.152281 0.134113 109.112349 C5.746605 86.249479 17.840687 66.749403 31.904678 48.296331 C37.187656 41.364653 42.762692 34.753950 51.591541 32.079748 C57.101528 30.410795 61.857624 32.189421 64.535854 37.427465 C65.858570 40.014402 66.515606 42.934263 67.634052 45.637190 C68.015591 46.559233 68.886486 47.278776 69.533779 48.090849 C70.219814 47.484144 71.157192 47.009062 71.554157 46.250990 C77.475651 34.942923 86.362629 26.347990 96.835095 19.449091 C111.354290 9.884356 124.722012 17.224958 127.504955 33.258390 C131.529598 56.445578 123.217922 76.564489 110.745373 95.423445 C103.048061 107.062056 92.433849 115.646940 80.820034 122.979872 C77.093411 125.332869 77.218945 127.080671 79.824116 129.833906 C91.363506 142.029036 97.455128 157.299467 103.534687 172.500410 C109.698025 187.910841 115.630001 203.438230 125.856487 216.719206 C130.740536 223.062040 137.759243 227.178099 145.605770 227.922911 C165.014111 229.765165 182.868145 225.555326 196.966000 211.042646 C200.080959 207.836027 201.758144 203.265760 204.715893 199.860640 C206.410000 197.910307 207.416775 193.760099 211.793743 195.747053 C216.638058 197.946150 214.888958 201.371382 213.565884 204.601103 C207.173489 220.205442 194.788021 229.204161 179.639828 235.086729 C168.382000 239.458555 156.542690 240.025419 144.819622 238.926237 C130.481167 237.581846 120.404751 228.795652 112.621548 217.281248 C103.286503 203.471022 97.966175 187.738462 91.555874 172.523588 C85.850407 158.981688 80.213139 145.341520 69.608975 134.627195 C63.764378 128.721876 57.424015 130.447508 54.540371 138.216764 C46.362782 160.249205 37.948319 182.209394 24.513859 201.743544 C22.573704 204.564634 19.890545 207.141020 17.009831 208.984739 C12.982979 211.561964 9.178883 209.803648 7.580797 205.448698 C4.920229 198.198332 7.186062 191.120939 9.008915 184.344145 C15.670284 159.579313 24.437641 135.499800 35.129189 112.200926 C42.013779 97.198133 50.218105 82.802092 57.144405 67.816786 C60.403561 60.765470 59.214321 52.928205 56.457272 45.807966 C54.780323 41.477179 51.934261 43.460714 49.381008 45.748121 C40.536144 53.672026 33.729988 63.181227 27.591347 73.234335 C24.261067 78.688261 20.925224 84.138792 17.591889 90.090849 M98.591885 93.590849 C98.709072 93.140326 98.697041 92.586966 98.961994 92.254026 C112.201702 75.617247 119.325131 57.133055 116.638195 35.489500 C115.472149 26.096815 107.922604 24.463934 102.315052 29.148725 C95.238094 35.061125 88.587277 41.666677 82.675831 48.744299 C75.445950 57.400442 69.239269 66.632757 68.390995 78.777067 C67.691197 88.795866 65.112469 98.674482 63.622746 108.653501 C63.263523 111.059767 63.918064 113.617369 64.106411 116.105375 C66.712055 115.823378 69.670940 116.243040 71.863003 115.139494 C82.058949 110.006620 90.373760 102.389067 98.591885 93.590849 M32.591889 164.590849 C36.109894 155.739515 39.697582 146.914595 43.074299 138.009687 C43.609852 136.597349 43.195034 134.824659 43.219608 133.218565 C40.950752 133.244780 38.541321 132.121305 37.371441 135.687635 C35.363113 141.809950 32.650066 147.696943 30.456848 153.763700 C26.743336 164.035795 23.157364 174.355101 19.655159 184.701063 C19.247440 185.905500 19.708973 187.404203 19.767521 188.766478 C20.708977 187.710020 21.951161 186.798536 22.541947 185.573011 C25.812859 178.787855 28.925213 171.926268 32.591889 164.590849 M51.591877 111.590849 C52.591877 107.721510 53.631970 103.861753 54.562336 99.975737 C54.781681 99.059538 54.631374 98.054838 54.651119 97.090849 C53.631374 97.846769 52.133495 98.387465 51.678738 99.397703 C50.119145 102.862379 48.831463 106.460997 47.649365 110.076963 C47.297489 111.153334 47.633007 112.454405 47.653561 113.652525 C48.799671 113.131971 49.945774 112.611402 51.591877 111.590849 z"/></svg>